<svg width="29" height="30" viewBox="0 0 29 30" fill="none" xmlns="http://www.w3.org/2000/svg">
<path d="M11.435 30C11.1494 30.0009 10.8664 29.916 10.6024 29.7503C10.3384 29.5846 10.0985 29.3413 9.89652 29.0343L0.665428 15.002C0.457449 14.6971 0.291503 14.3324 0.177271 13.929C0.0630386 13.5257 0.00280901 13.0918 9.59341e-05 12.6526C-0.00261714 12.2135 0.0522407 11.778 0.161469 11.3714C0.270696 10.9649 0.432107 10.5955 0.636282 10.2847C0.840457 9.97399 1.08331 9.72816 1.35066 9.56158C1.61802 9.39501 1.90453 9.31102 2.19347 9.31452C2.48241 9.31803 2.768 9.40895 3.03358 9.58198C3.29915 9.75502 3.53939 10.0067 3.74028 10.3223L11.4329 22.0132L25.2838 0.969671C25.4859 0.662401 25.7258 0.418618 25.9898 0.252242C26.2538 0.0858655 26.5368 0.000153756 26.8227 2.06675e-07C27.1085 -0.000153343 27.3916 0.0852545 27.6557 0.251347C27.9198 0.41744 28.1598 0.660964 28.362 0.968017C28.5641 1.27507 28.7245 1.63964 28.834 2.0409C28.9435 2.44217 28.9999 2.87228 29 3.30667C29.0001 3.74106 28.9439 4.17123 28.8346 4.57261C28.7253 4.974 28.5651 5.33874 28.363 5.64601L12.9735 29.0343C12.7716 29.3413 12.5317 29.5846 12.2677 29.7503C12.0036 29.916 11.7207 30.0009 11.435 30Z" fill="#00FF38"/>
</svg>
