<svg width="28" height="26" viewBox="0 0 28 26" fill="none" xmlns="http://www.w3.org/2000/svg">
<path d="M17.7686 13.0012L27.1866 4.25341C27.4411 4.02519 27.6441 3.75221 27.7837 3.45038C27.9233 3.14855 27.9968 2.82392 27.9999 2.49543C28.003 2.16694 27.9356 1.84118 27.8016 1.53714C27.6676 1.2331 27.4698 0.956883 27.2197 0.724599C26.9695 0.492314 26.672 0.308617 26.3446 0.184225C26.0172 0.0598338 25.6664 -0.00276106 25.3126 9.34076e-05C24.9589 0.00294787 24.6093 0.0711945 24.2842 0.200851C23.9592 0.330507 23.6652 0.518977 23.4194 0.755263L13.9987 9.50062L4.58059 0.755263C4.33482 0.518977 4.04084 0.330507 3.71579 0.200851C3.39074 0.0711945 3.04114 0.00294787 2.68739 9.34076e-05C2.33363 -0.00276106 1.98281 0.0598338 1.65538 0.184225C1.32796 0.308617 1.03049 0.492314 0.780337 0.724599C0.530185 0.956883 0.332357 1.2331 0.198397 1.53714C0.0644364 1.84118 -0.00297345 2.16694 0.000100593 2.49543C0.00317463 2.82392 0.076671 3.14855 0.216301 3.45038C0.355931 3.75221 0.558898 4.02519 0.81336 4.25341L10.2314 12.9988L0.81336 21.7466C0.558898 21.9748 0.355931 22.2478 0.216301 22.5496C0.076671 22.8515 0.00317463 23.1761 0.000100593 23.5046C-0.00297345 23.8331 0.0644364 24.1588 0.198397 24.4629C0.332357 24.7669 0.530185 25.0431 0.780337 25.2754C1.03049 25.5077 1.32796 25.6914 1.65538 25.8158C1.98281 25.9402 2.33363 26.0028 2.68739 25.9999C3.04114 25.9971 3.39074 25.9288 3.71579 25.7991C4.04084 25.6695 4.33482 25.481 4.58059 25.2447L13.9987 16.4994L23.4194 25.2447C23.6652 25.481 23.9592 25.6695 24.2842 25.7991C24.6093 25.9288 24.9589 25.9971 25.3126 25.9999C25.6664 26.0028 26.0172 25.9402 26.3446 25.8158C26.672 25.6914 26.9695 25.5077 27.2197 25.2754C27.4698 25.0431 27.6676 24.7669 27.8016 24.4629C27.9356 24.1588 28.003 23.8331 27.9999 23.5046C27.9968 23.1761 27.9233 22.8515 27.7837 22.5496C27.6441 22.2478 27.4411 21.9748 27.1866 21.7466L17.7686 13.0012Z" fill="#707070"/>
</svg>
